<svg id="visual" viewBox="0 0 900 220" width="900" height="220" xmlns="http://www.w3.org/2000/svg" xmlns:xlink="http://www.w3.org/1999/xlink" version="1.1"><path d="M0 182L21.5 189C43 196 86 210 128.8 215.5C171.7 221 214.3 218 257.2 207C300 196 343 177 385.8 176.2C428.7 175.3 471.3 192.7 514.2 201.5C557 210.3 600 210.7 642.8 204.8C685.7 199 728.3 187 771.2 179.7C814 172.3 857 169.7 878.5 168.3L900 167L900 0L878.5 0C857 0 814 0 771.2 0C728.3 0 685.7 0 642.8 0C600 0 557 0 514.2 0C471.3 0 428.7 0 385.8 0C343 0 300 0 257.2 0C214.3 0 171.7 0 128.8 0C86 0 43 0 21.5 0L0 0Z" fill="#5c3d89"></path><path d="M0 173L21.5 171C43 169 86 165 128.8 156C171.7 147 214.3 133 257.2 133.2C300 133.3 343 147.7 385.8 148.3C428.7 149 471.3 136 514.2 137.5C557 139 600 155 642.8 162.8C685.7 170.7 728.3 170.3 771.2 162.5C814 154.7 857 139.3 878.5 131.7L900 124L900 0L878.5 0C857 0 814 0 771.2 0C728.3 0 685.7 0 642.8 0C600 0 557 0 514.2 0C471.3 0 428.7 0 385.8 0C343 0 300 0 257.2 0C214.3 0 171.7 0 128.8 0C86 0 43 0 21.5 0L0 0Z" fill="#856aa6"></path><path d="M0 124L21.5 121C43 118 86 112 128.8 106.7C171.7 101.3 214.3 96.7 257.2 103C300 109.3 343 126.7 385.8 134C428.7 141.3 471.3 138.7 514.2 139C557 139.3 600 142.7 642.8 136.5C685.7 130.3 728.3 114.7 771.2 105.8C814 97 857 95 878.5 94L900 93L900 0L878.5 0C857 0 814 0 771.2 0C728.3 0 685.7 0 642.8 0C600 0 557 0 514.2 0C471.3 0 428.7 0 385.8 0C343 0 300 0 257.2 0C214.3 0 171.7 0 128.8 0C86 0 43 0 21.5 0L0 0Z" fill="#ad9ac3"></path><path d="M0 68L21.5 69.2C43 70.3 86 72.7 128.8 79C171.7 85.3 214.3 95.7 257.2 101.3C300 107 343 108 385.8 100.7C428.7 93.3 471.3 77.7 514.2 70.8C557 64 600 66 642.8 66.2C685.7 66.3 728.3 64.7 771.2 69C814 73.3 857 83.7 878.5 88.8L900 94L900 0L878.5 0C857 0 814 0 771.2 0C728.3 0 685.7 0 642.8 0C600 0 557 0 514.2 0C471.3 0 428.7 0 385.8 0C343 0 300 0 257.2 0C214.3 0 171.7 0 128.8 0C86 0 43 0 21.5 0L0 0Z" fill="#d6cbe1"></path><path d="M0 34L21.5 39C43 44 86 54 128.8 53.7C171.7 53.3 214.3 42.7 257.2 42.3C300 42 343 52 385.8 53.8C428.7 55.7 471.3 49.3 514.2 50C557 50.7 600 58.3 642.8 56.5C685.7 54.7 728.3 43.3 771.2 37.7C814 32 857 32 878.5 32L900 32L900 0L878.5 0C857 0 814 0 771.2 0C728.3 0 685.7 0 642.8 0C600 0 557 0 514.2 0C471.3 0 428.7 0 385.8 0C343 0 300 0 257.2 0C214.3 0 171.7 0 128.8 0C86 0 43 0 21.5 0L0 0Z" fill="#ffffff"></path></svg>
