<svg id="visual" viewBox="0 350 900 300" width="900" height="300" xmlns="http://www.w3.org/2000/svg" xmlns:xlink="http://www.w3.org/1999/xlink" version="1.1"><rect x="0" y="0" width="900" height="600" fill="#402466"></rect><path d="M0 387L21.5 397.7C43 408.3 86 429.7 128.8 437.7C171.7 445.7 214.3 440.3 257.2 434.2C300 428 343 421 385.8 423.8C428.7 426.7 471.3 439.3 514.2 439C557 438.7 600 425.3 642.8 418.3C685.7 411.3 728.3 410.7 771.2 412.5C814 414.3 857 418.7 878.5 420.8L900 423L900 601L878.5 601C857 601 814 601 771.2 601C728.3 601 685.7 601 642.8 601C600 601 557 601 514.2 601C471.3 601 428.7 601 385.8 601C343 601 300 601 257.2 601C214.3 601 171.7 601 128.8 601C86 601 43 601 21.5 601L0 601Z" fill="#5c3d89"></path><path d="M0 427L21.5 433.5C43 440 86 453 128.8 453C171.7 453 214.3 440 257.2 444C300 448 343 469 385.8 473C428.7 477 471.3 464 514.2 452.2C557 440.3 600 429.7 642.8 432.3C685.7 435 728.3 451 771.2 457.2C814 463.3 857 459.7 878.5 457.8L900 456L900 601L878.5 601C857 601 814 601 771.2 601C728.3 601 685.7 601 642.8 601C600 601 557 601 514.2 601C471.3 601 428.7 601 385.8 601C343 601 300 601 257.2 601C214.3 601 171.7 601 128.8 601C86 601 43 601 21.5 601L0 601Z" fill="#927ab0"></path><path d="M0 512L21.5 506.8C43 501.7 86 491.3 128.8 490.8C171.7 490.3 214.3 499.7 257.2 503.5C300 507.3 343 505.7 385.8 500.3C428.7 495 471.3 486 514.2 489.5C557 493 600 509 642.8 514.8C685.7 520.7 728.3 516.3 771.2 509.8C814 503.3 857 494.7 878.5 490.3L900 486L900 601L878.5 601C857 601 814 601 771.2 601C728.3 601 685.7 601 642.8 601C600 601 557 601 514.2 601C471.3 601 428.7 601 385.8 601C343 601 300 601 257.2 601C214.3 601 171.7 601 128.8 601C86 601 43 601 21.5 601L0 601Z" fill="#c8bbd7"></path><path d="M0 540L21.5 543.2C43 546.3 86 552.7 128.8 556.2C171.7 559.7 214.3 560.3 257.2 556.2C300 552 343 543 385.8 541.5C428.7 540 471.3 546 514.2 544C557 542 600 532 642.8 533.8C685.7 535.7 728.3 549.3 771.2 551.7C814 554 857 545 878.5 540.5L900 536L900 601L878.5 601C857 601 814 601 771.2 601C728.3 601 685.7 601 642.8 601C600 601 557 601 514.2 601C471.3 601 428.7 601 385.8 601C343 601 300 601 257.2 601C214.3 601 171.7 601 128.8 601C86 601 43 601 21.5 601L0 601Z" fill="#ffffff"></path></svg>
